<svg fill="#393831" stroke="#393831" stroke-width="60" stroke-linejoin="round" xmlns="http://www.w3.org/2000/svg" width="4604" height="1093.333" viewBox="0 0 3453 820"><path d="M293.5 13.2c-9.8 2.4-23.9 9.3-36.5 17.6-4.7 3.1-8.7 5.9-9 6.2s-3.4 2.8-7 5.5-6.7 5.2-7 5.5-6.8 6.2-14.5 13.1c-7.7 7-15.5 14.4-17.4 16.5-1.9 2.2-6.2 6.8-9.5 10.4-10.5 11.2-14.9 16.2-24.1 27-11.8 13.7-11.3 13.2-19 23-3.7 4.7-7.4 9.4-8.3 10.5s-2.9 3.8-4.3 6.1c-1.5 2.2-4 5.4-5.7 7-1.6 1.6-3.7 4.5-4.7 6.4s-2.1 3.7-2.4 4c-1.6 1.4-21.5 31-29.6 44.2-.5.9-3.8 6.2-7.3 11.7-3.4 5.4-6.2 10.2-6.2 10.5 0 .4-1.1 2.3-2.3 4.4-5.8 9.2-19.7 36-25 48.2-1.6 3.6-3.9 8.7-5.1 11.5-1.3 2.7-3.1 7-4.1 9.5s-2.3 5.8-3 7.5c-.7 1.6-2 5.1-2.9 7.7s-2 5.6-2.5 6.5c-.5 1-1.7 4.5-2.6 7.8-1 3.3-2.1 6.9-2.5 8-1.5 4.1-5.9 22-7 28.5-.4 2.5-1.3 7.9-2 12-1.4 8.7-.9 42.7.8 47.5.6 1.6 1.8 5.7 2.8 9 3.4 11.5 11.8 25.8 18.1 30.8 1.3 1 2.9 2.4 3.6 3.1 7.5 7.4 23.9 15.9 35.7 18.7 13.4 3.1 20.6 4.2 31 4.5 12.8.5 14.3-.1 16.9-6.2 1-2.6 1-3.7-.2-6.5-.8-1.9-2-3.9-2.8-4.5s-8.1-1.9-16.4-2.8c-8.2-.9-16.8-2.2-19-2.8-8.6-2.3-16.6-5.1-17.1-5.9-.3-.5-1.2-.9-2-.9-2.2 0-12.2-7.5-17-12.7-3.4-3.7-6.6-9.1-11.6-19.5-4.9-10.4-4.8-46.4.2-66.3 3-12.2 4.2-16.4 6.1-22 1.1-3.3 2.4-7.4 2.9-9 1.3-4.6 3.2-9.9 7.2-19.5.5-1.4 1.6-3.8 2.4-5.3.8-1.6 1.4-3.2 1.4-3.7 0-2 20.2-43.9 24.5-51 1.2-1.9 4.3-7.6 7-12.5 2.6-5 6.5-11.6 8.6-14.8 2.2-3.2 3.9-6.1 3.9-6.3 0-.3 1.8-3.2 4-6.5s4-6.2 4-6.5c0-.4 13.1-20 15.3-22.9.4-.5 3.5-4.9 6.8-9.8 3.4-4.8 6.6-8.7 7-8.7.5 0 .9-.5.9-1.1 0-2.4 17.8-25.6 35.5-46.2 3.3-3.9 7.9-9.4 10.2-12.2 2.2-2.9 13.5-14.6 25-26.1 20.1-20.3 33.8-32.2 47.3-41.5 3.6-2.4 6.7-4.6 7-4.9.6-.6 3.5-2.3 10.3-5.8 7.9-4.1 14.9-6.2 21-6.2 5.1 0 5.8.3 8.4 3.5 2 2.4 3.5 6 4.7 11.5 2.5 10.7 2.1 17.1-3.3 50.5-.9 5.9-2.7 13.2-4.7 19.5-.8 2.5-1.4 5.5-1.4 6.7s-.4 3.2-.9 4.5-1.6 5.9-2.5 10.3c-1 4.4-2.3 10.2-3.1 13-1.2 4.6-2.8 11.7-5.6 25-.6 2.7-1.6 7.2-2.4 10-.7 2.7-2.1 8.6-3 13s-2.1 9.4-2.6 11.1-.9 3.9-.9 5c0 1-.7 3.2-1.5 4.8-.8 1.5-1.5 4.5-1.5 6.6 0 2.2-.5 5.1-1.1 6.7-.7 1.5-1.6 4.8-2 7.3-.8 4.6-2.5 12-5.4 24.5-.9 3.8-2.1 8.8-2.5 11-1.2 6.5-3.1 14.6-4.5 20-.7 2.7-1.8 7.7-2.5 11-.6 3.3-1.8 8.3-2.6 11.1s-1.4 6.1-1.4 7.4c0 1.2-.7 4.3-1.5 6.9-.8 2.5-1.9 7.3-2.6 10.6-.6 3.3-1.7 8.3-2.5 11.2-.8 2.8-1.4 6.3-1.4 7.8 0 1.4-.5 3.6-1.1 4.7s-1.5 4.4-2 7.2c-.4 2.8-1.5 8.2-2.4 12.1-.9 3.8-2 9.3-2.5 12.1-.4 2.8-1.3 6.1-1.9 7.2s-1.1 3.4-1.1 5-.7 4.9-1.5 7.2-1.5 5.5-1.5 7.1c0 1.5-.4 3.8-.9 5.1s-1.6 5.9-2.6 10.3c-.9 4.4-2.3 10.7-3 14-.8 3.3-1.6 7.1-1.8 8.5-.3 1.4-1.2 5.9-2.2 10-3.1 13.4-4.6 20.4-5.4 25-.5 2.5-1.6 7.6-2.5 11.5-2.7 11.5-4.7 20.7-5.5 25.5-.4 2.5-1.3 6.3-1.9 8.5s-1.8 7.6-2.7 12-2.1 9.6-2.5 11.5-1.6 7.1-2.5 11.5-2.3 10.3-3.1 13.1-1.4 5.9-1.4 7c0 1.7-1.8 10.4-4 19.4-1.5 6.3-3.2 14.4-4 19-.4 2.5-1.5 7.3-2.4 10.6-1.5 5.7-3.8 16.7-5.6 27.4-.4 2.5-1.2 6.5-1.8 9-1.3 5.6-3.7 16.7-5.1 24-2.4 12.6-4.2 21.8-5.3 26-.6 2.5-1.5 6.7-1.9 9.5-.5 2.7-1.6 8.4-2.4 12.5s-1.9 10.3-2.5 13.6c-.5 3.4-1.4 7.4-2 8.8-.5 1.5-1 4-1 5.6s-.6 5.5-1.4 8.7-1.7 8.2-2 11l-.5 5.3h35.5l1.9-6.2c2.1-7.3 3.9-13.4 5.9-19.8.8-2.5 3.3-10.6 5.6-18s4.8-15.1 5.5-17 2.1-6.2 3-9.5c1-3.3 2.1-6.9 2.6-8 .4-1.1 1.5-4.5 2.4-7.5 1-3 2.4-7 3.1-8.8.8-1.8 1.4-4.1 1.4-5 0-1 .4-2.2.9-2.8.5-.5 1.6-3.6 2.6-6.9 1.6-5.7 2.4-8 5.8-17 .8-2.2 2.2-6.3 3-9 2.5-7.9 3.9-11.8 5.3-14.7.8-1.4 1.4-3.5 1.4-4.5s.4-2.3.9-2.8c.5-.6 1.8-4.3 3.1-8.2 1.2-4 2.6-7.5 3.1-7.8.5-.4.9-1.5.9-2.5 0-1.7 1.8-6.6 4.1-11.2.5-1 .9-2.3.9-2.9s.6-2.5 1.4-4.2c2.6-6.2 3.8-9.3 5.3-13.7.8-2.5 2.1-5.9 2.8-7.5.7-1.7 2-4.9 2.9-7.3.9-2.3 2.3-6.1 3.2-8.5.9-2.3 2.3-5.8 3.1-7.7 2.6-6.3 3-7.5 4.8-12 1.9-4.8 4.3-10.4 5.6-13.2.5-1 .9-2.2.9-2.8 0-.5 1.4-4 3.1-7.7 4.9-10.7 5.9-13.1 5.9-13.8 0-.3 1.2-3.2 2.6-6.3s3-6.6 3.4-7.7c3.8-8.7 5.6-12.7 7.7-17.5 1.4-3 3.1-6.9 3.8-8.5 1.3-3 6.2-13.7 11.7-25.5 3.4-7.2 33.4-67.6 34.8-70 .5-.8 1.1-2.2 1.5-3 .3-.8 1.1-2.4 1.8-3.5s3.9-7 7.2-13c3.3-6.1 6.5-11.9 7.2-13s1.5-2.7 1.9-3.5c1.1-2.1 14.2-24.3 15.1-25.5.4-.6 1.7-2.6 2.7-4.5 2.1-3.8 7.7-12.9 10.7-17.2 1.1-1.5 1.9-2.9 1.9-3.2 0-1 19.7-29.7 26.4-38.4 3.9-5.1 8.2-11 9.6-13.1 6.1-9.1 25.8-31 40.1-44.6 17.5-16.7 38.4-28.5 50.3-28.5 2 0 6.1 1.1 8.9 2.5 4.2 1.9 6 3.7 9.4 8.9 2.3 3.5 4.5 7.7 4.9 9.3.4 1.5 1 3.2 1.4 3.8 1.1 1.4 3.1 9.9 4 17 2.6 21.1 3.3 34.4 2.2 48-.6 7.7-1.3 21.9-1.6 31.5-.4 9.6-.9 18.6-1.2 19.9-.5 2.3-2.2 18.6-4.4 42.6-.6 5.5-1.4 12.2-2 14.8-.5 2.6-1 6.9-1 9.5s-.5 6.6-1 9c-.6 2.4-1.5 8-2 12.5s-1.7 13.4-2.5 19.7c-.9 6.3-2 14.9-2.5 19-.4 4.1-1.3 10-1.9 13-1.3 7.3-3.1 18.9-4.1 27.5-.5 3.8-1.6 11.7-2.5 17.5s-2.1 13.9-2.6 18-1.2 8.2-1.5 9-1 5.1-1.4 9.5c-1.1 10.1-2.8 22.5-4 29-1.3 7.2-3 19.7-4 29.5-.4 4.7-1.1 9.2-1.4 10s-1.1 5.5-1.6 10.5c-.5 4.9-1.7 14.6-2.5 21.5-.9 6.9-2 17.7-2.5 24s-1.4 16.4-2.1 22.5c-2.6 24.6 1.8 41.4 11.3 43.4 10.4 2.2 17-3.7 29-25.6 4.9-9.2 3.4-17.2-3.8-19.2-4.4-1.3-8.8.9-11.6 5.8-1.3 2.3-2.7 3.9-3.3 3.8-1.2-.5-.7-25.6.6-30.9.5-2 1.4-8.3 1.9-14 1.7-18.8 3-30 4-34.2.5-2.2 1-6.1 1-8.6s.5-6.1 1-8c.6-1.9 1.5-7.1 2-11.5s1.6-12.5 2.4-18c.9-5.5 2-13.6 2.6-18s1.3-8.7 1.6-9.5.9-4.7 1.4-8.5c1.2-11 3-23.6 4.1-28.5.9-4.6 2.4-15.5 3.9-29 .4-4.1 1.3-9.5 1.9-12s1.1-6.5 1.1-9 .5-6.1 1-8c.6-1.9 1.5-7.3 2-12 2.4-21.7 3.1-26.8 4-31.3.5-2.6 1-7.1 1-10s.7-7.9 1.5-11.2 1.4-8.6 1.5-11.7c0-3.1.4-7.9 1-10.5 1-5.1 2.5-20.7 4-41.8.5-7.2 1.4-16.2 1.9-20 1.3-8.9 1.3-50.9 0-64-3-30.4-4.7-39.5-8.8-47.2-.5-1-1.2-2.5-1.5-3.3-3-7.7-13.2-18.7-20.6-22.1-1.9-.9-4.8-2.3-6.4-3-6.3-3-24.9-1.4-32.8 2.7-1.4.8-3.1 1.4-3.6 1.4-1.8 0-15.5 8.2-23.6 14.1-16.1 11.8-37.8 34-55.6 56.9-3.6 4.6-8.4 10.4-10.7 13-2.4 2.6-4.3 5-4.3 5.4s-3 5.1-6.7 10.4c-14.5 21.1-36.9 56.2-39.6 62.2-.4.8-1.6 2.8-2.7 4.5-1.1 1.6-2.3 3.7-2.7 4.5-.3.8-1.6 3.1-2.8 5-2.5 4-7.3 12.7-12 21.5-1.8 3.3-5.4 10-8 15-6.1 11.4-23.6 46.4-31 62-8.3 17.5-16.7 35.6-18.5 40-.5 1.1-2 4.7-3.5 8s-3.4 7.6-4.2 9.5-2.1 5-2.9 6.7c-1.8 4.2-3.9 9.1-5.2 12.3-.6 1.4-2.5 5.6-4.1 9.3-1.7 3.8-3.1 7.3-3.1 7.8s-.4 1.7-1 2.7c-1.1 2.1-3 6.5-7 16.7-1.8 4.4-3.8 9.3-4.5 11-.7 1.6-2.1 5.2-3 8-1 2.7-2.2 5.4-2.7 6-.4.5-.8 1.7-.8 2.6 0 1-.6 3-1.4 4.6-2.7 5.1-4.6 10.1-4.6 11.6 0 .9-.4 1.8-.9 2.1s-1.1 1.6-1.4 2.8c-.3 1.3-1.5 4.8-2.6 7.8-1.2 3-3.1 8.2-4.3 11.5-1.1 3.3-2.4 6.4-2.8 7-.4.5-1 2.1-1.3 3.5-.5 2.4-4.8 14.5-6.6 18.5-1.6 3.7-4.1 11.1-4.1 12.3 0 .7-1.2 3.6-2.6 6.5-1.4 2.8-3 6.8-3.4 8.7-1.6 6.7-10.7 34.6-14.4 44-.8 1.9-2.2 6.2-3.2 9.5-.9 3.3-2.1 6.7-2.5 7.5-.5.8-1.3 3.1-1.8 5-.7 2.9-1 3.2-1.6 1.6-.5-1.1-.1-4.7.8-8.5.9-3.6 1.8-8 2.2-9.6.3-1.7 1.2-6.4 2.1-10.5.8-4.1 1.8-8.9 2-10.5.5-3.3 2.9-14.3 4.6-21.5.6-2.5 1.5-6.3 2-8.5s1.3-6.7 1.7-10c.5-3.3 1.3-7.8 1.9-10 1.1-4.2 3.8-16.3 4.6-20.5.6-3.4 3.5-17 5.3-25 .8-3.6 1.8-8.5 2.2-11 .9-4.9 2.5-12.3 4.6-21 .7-3 1.8-8.2 2.5-11.5.6-3.3 1.6-8 2.2-10.5s1.4-6.5 1.9-9c.7-4.1 1.5-7.7 3.9-18 3.4-14.7 4-17.8 4-19.8 0-1.3.5-3.3 1.1-4.4s1.5-4.4 1.9-7.2c.5-2.8 1.3-7.1 1.9-9.6s1.6-7 2.2-10 1.7-8 2.4-11 2.1-9.1 3-13.5 2.1-9.4 2.6-11.1.9-4 .9-5.1.6-4.3 1.4-6.9c1.3-4.6 2.1-8.2 6.2-27.4 1.6-7.8 2.2-10.3 4.8-20.7.9-3.5 1.6-7.4 1.6-8.9 0-1.4.4-3.3 1-4.3.5-1 1.4-4.3 1.9-7.2.6-3 1.7-8.6 2.6-12.4.9-3.9 2-8.8 2.4-11 1.6-7.4 3.3-15 4.6-20 .7-2.8 1.8-7.5 2.4-10.5 2.5-11.7 4.3-19.7 5.3-23.5.6-2.2 1.5-5.8 1.9-8 .5-2.2 1.5-7.2 2.4-11 .9-3.9 2-9.3 2.5-12.1.4-2.8 1.3-6.1 1.9-7.2s1.1-3.5 1.1-5.2.5-4.1 1.2-5.3 1.5-4.5 1.9-7.2c.4-2.8 1.4-7.9 2.3-11.5s2.1-8.6 2.6-11.2c.5-2.7 1.2-5.2 1.5-5.8s1-3.1 1.5-5.8c.4-2.6 1.5-7.7 2.4-11.5.9-3.7 2.3-9.7 3.2-13.5.9-3.7 2-8.5 2.5-10.7.4-2.2 1.5-6.7 2.3-10 3.3-13 4.8-19.2 5.5-23 1.6-7.4 3.3-15 4.7-20.6.8-3 1.4-7.4 1.4-9.7 0-2.2.5-5.3 1.1-6.9 1.7-4.4 1.4-37.7-.4-44.3-3.1-11.2-7.2-17.8-14-22.3-8.2-5.4-18.1-6.9-28.2-4.5M2276.5 13.5c-2.7.6-6.3 1.7-7.8 2.3-1.6.7-3.2 1.2-3.6 1.2-.7 0-11 5.2-14.9 7.5-10.1 6-20.7 13.6-33.2 23.9-10.9 8.9-45.8 43.9-57.5 57.6-4.9 5.8-10.4 12.1-12.1 14-1.8 1.9-4.8 5.6-6.7 8.1-1.9 2.6-4.4 5.7-5.5 7-5.1 6.1-11 13.7-12.8 16.4-1 1.7-2.1 3.2-2.5 3.5-1.6 1.3-20.8 28.4-25.4 35.8-.5.9-2.6 3.9-4.6 6.7-4.2 5.9-27.1 43.1-32.3 52.5-9.1 16.5-25.4 50.8-30.7 64.5-1.3 3.3-2.7 6.4-3.1 6.9-.4.6-.8 1.9-.8 3.1s-.4 2.5-.9 3c-.5.6-2.3 5.5-4.1 11s-3.9 11.7-4.6 13.8c-.8 2-1.4 4.8-1.4 6 0 1.3-.4 2.7-.9 3.2-.8 1-1.4 3.4-4.8 22.5-2.4 13.4-2.8 38.1-.8 48.7 4.7 24.4 12.6 38.1 29.8 51.5 14.8 11.6 36.7 18.5 62 19.5l11.9.5 2.9-3.3c3.8-4.2 4.3-6.2 2.6-9.6-2.9-5.4-4.4-6-19.7-7.8-20.4-2.3-28.2-4.3-40.3-10.6-5.1-2.6-6-3.3-13.6-10.9-6.6-6.6-7.4-7.7-10.9-16-8.4-19.4-8.4-44.4-.1-77.5 2.1-8.3 4.1-15.1 5.5-18.3.8-1.8 1.4-4.1 1.4-5 0-1 .4-2.2.9-2.7.5-.6 1.6-3.7 2.6-7s2.4-7.1 3.1-8.5 2.7-6.1 4.4-10.4c1.8-4.4 3.6-8.7 4-9.5 18.8-38.7 24.6-49.6 34.3-65.6 3.3-5.5 6.8-11.3 7.6-12.8 2.6-4.6 3.1-5.4 15.5-24.2 6.6-9.9 12.5-18.5 13.1-19 .6-.6 2.3-2.8 3.7-5.1 1.5-2.2 3.2-4.7 4-5.5s2.3-3 3.5-4.9 3-4.4 4-5.5 4.7-5.8 8.3-10.5c22.8-30.1 56.6-66.5 80.5-86.8 5-4.2 9.9-8.5 11-9.5 2.7-2.5 24-16.7 25-16.7.5 0 1.6-.6 2.4-1.4 3.3-2.8 15.6-6.6 21.3-6.6 4.9 0 6 .4 8.4 2.9 4.4 4.7 6.4 12.8 6.4 26.1 0 6.3-.5 13.3-1 15.5-.6 2.2-1.5 7.1-2 11-.5 3.8-1.7 10.1-2.5 14-.9 3.8-2 8.8-2.4 11-.8 4-2.1 9.4-4.6 19-.7 2.7-1.8 7.7-2.5 11s-1.8 8.2-2.5 11c-2.6 10-3.8 15.1-4.5 19-.5 2.2-1.5 6.9-2.3 10.5-3.8 15.6-4.9 20.7-5.7 24.5-.4 2.2-1.6 7.1-2.5 11-2.3 9.4-4.3 18.4-5 22-1.1 5.7-3.7 17-5 22-.7 2.7-1.8 7.7-2.5 11s-1.8 8.3-2.6 11.2c-.8 2.8-1.4 6.1-1.4 7.3s-.7 4.3-1.5 6.9c-.8 2.5-2.1 8-3 12.1-3.2 15.2-3.7 17.6-5 23-.7 3-2.1 9.1-3 13.5s-2.1 9.6-2.5 11.5c-.5 1.9-1.6 6.6-2.4 10.5-.9 3.8-2 9-2.7 11.5-.6 2.5-1.5 6.5-1.9 9-.5 2.5-1.6 7.6-2.5 11.5-.9 3.8-2 9.1-2.5 11.6-.4 2.5-1.3 6.4-1.8 8.5-1.2 4.5-3.4 14.5-5.7 25.4-.9 4.1-2 8.9-2.5 10.6-.6 1.7-1 4.1-1 5.4s-.6 4.6-1.4 7.4-2.2 8.7-3.2 13.1c-.9 4.4-2.3 10.9-3.1 14.5-.7 3.6-1.8 8.7-2.4 11.5-.6 2.7-1.7 7.3-2.5 10.1s-1.4 5.9-1.4 7c0 1.8-1.9 11.2-4 19.4-1 3.9-3.1 13.6-5.5 25.5-1 4.4-2.1 9.6-2.6 11.5-1.1 4-2.7 11.5-3.8 18-.5 2.5-1.4 6.7-2 9.5-2.9 11.8-3.4 14.2-4.2 18.5-.4 2.5-1.5 7.9-2.4 12-.8 4.1-2 9.8-2.4 12.7-.5 2.8-1.2 5.7-1.6 6.3s-1.1 3.5-1.5 6.3c-.5 2.9-1.6 8.6-2.5 12.7-.8 4.1-1.9 10.1-2.4 13.2-.5 3.2-1.3 6.3-1.7 7s-1.1 3-1.5 5.3c-.9 5.3-3.7 20.2-5.6 29-.7 3.8-1.8 9.5-2.3 12.6s-1.4 6.8-2 8.3c-.5 1.5-1 3.9-1 5.4s-.6 5.6-1.4 9.2-1.9 9-2.5 12c-.5 3-1.7 9.1-2.5 13.5-.9 4.4-1.7 9.5-1.9 11.2l-.4 3.3h35.3l1.8-5.8c2.9-9.1 4.2-13.1 7.1-22.7 1.5-5 3.4-11.3 4.2-14 .9-2.8 2.1-6.6 2.8-8.5s2.5-7.6 4-12.5c1.5-5 3.3-10.6 4-12.5s2.8-8.2 4.6-14 3.5-11 3.9-11.5c.7-.9 1.4-3.1 5.7-17.5 1-3 2.1-5.9 2.5-6.4.4-.6.8-1.6.8-2.4s.6-2.8 1.3-4.5c1.7-4 3.7-9.6 4.4-12.2.3-1.1 1.1-3.4 1.9-5.2.8-1.7 1.4-3.6 1.4-4.2s.4-1.9.9-2.9c.6-.9 2-4.6 3.2-8.2 3.4-10.2 4.5-12.9 5.2-13.6.4-.4.7-1.4.7-2.3s.7-2.9 1.5-4.5c.8-1.5 1.5-3.6 1.5-4.5s.7-2.5 1.5-3.5c.8-1.1 1.5-2.9 1.5-4.1s.4-2.5.9-3c.5-.6 1.8-3.9 3.1-7.5 1.2-3.6 2.5-7 2.9-7.5.5-.6 1.1-1.9 1.4-3 .7-2.6 5.4-15.3 6.8-18.5 2.6-5.8 3.8-8.7 5-12 1.7-4.8 4.8-12.1 5.9-14.2.6-1 1-2.2 1-2.7s1.4-3.9 3-7.4c1.7-3.6 3-6.8 3-7.2 0-.3 1.2-3.2 2.6-6.3 4.4-9.6 5.4-12 5.4-12.6 0-.3 1.1-2.9 2.4-5.8 3.9-8.6 7.7-17.1 9.3-20.8 6.3-14.3 30-64.2 33.2-70 .5-.8 2-3.8 3.3-6.5 2.8-5.6 12.6-24.3 16.8-32 1.5-2.8 4.1-7.5 5.8-10.5 6-11.1 11-20 14-24.5.6-1.1 1.5-2.7 1.9-3.5 1-2.2 23.2-38.2 29.6-48 26.3-40.2 55.5-75 78.2-93.4 9.3-7.6 21.6-15.6 23.8-15.6.7 0 1.7-.4 2.3-.9 1.4-1.3 11.7-4.1 15.2-4.1 4.4 0 11.4 3.3 15.2 7.2 3.5 3.6 8.4 13.5 10.6 21.3 3.4 11.8 3.9 19.2 3.9 54 0 42.7-.4 48.1-6 96.5-.8 6.9-1.7 15-2 18-1.7 17-3.2 28.9-5.7 44-.6 3.6-1.4 9.9-1.9 14-.9 7.8-3.4 26.3-4.3 31.5-.3 1.6-1.2 8.2-2.1 14.5s-2.1 14.2-2.7 17.5-1.4 8.9-1.9 12.5c-.4 3.6-1.5 11-2.3 16.5-.9 5.5-2 14-2.6 18.8-.5 4.9-1.2 9.3-1.5 9.7-.3.5-1 4.9-1.5 9.7s-1.4 11.9-2 15.8c-.6 3.8-1.5 9.9-2 13.5s-1.4 10.1-2 14.5-1.5 12.3-2 17.5-1.4 11.3-2 13.5c-.5 2.2-1 6.7-1 10s-.5 7.8-1 10-1.5 13.5-2.1 25c-2 34.8.7 46 11.7 48.1 9.1 1.7 17.7-6.5 28.5-27.4 2.1-4.2 3.9-8.1 3.9-8.9 0-.7-.9-2.7-1.9-4.5-4.4-7.1-13.4-6.7-18 .8-1.4 2.4-2.9 4.4-3.3 4.4-1.1 0-1-18.8.2-26.7.9-6.7 2.9-23.9 3.6-31.8.5-5.2 3.2-25.3 4.5-33 1-6.1 2.3-16 3.9-29.5.4-4.1 1.3-10 1.9-13 1.2-6 3.7-22.2 4.6-28.5.2-2.2.9-7.5 1.4-11.8s1.4-10.1 2-13c.5-2.9 1.7-10.6 2.6-17.2s2-14.7 2.5-18 1.2-8.3 1.5-11c.3-2.8 1-7.7 1.5-11s1.6-11.4 2.5-18 2.2-16.7 3-22.5 1.7-12.5 1.9-15 .9-8.6 1.5-13.5c3.1-24 5.2-44.4 6.2-58 .4-6.6 1.3-16.1 1.9-21 .6-5 1.1-24.5 1.1-44 .1-28.9-.2-36-1.5-40.8-.9-3.2-1.6-7-1.6-8.5 0-1.4-.6-4.4-1.4-6.7-.7-2.2-1.9-5.8-2.6-8-4.5-15-14.7-27.9-26.5-33.6-6.6-3.2-7.6-3.4-17.7-3.4-7.2 0-11.1.4-12 1.3-.6.6-2.1 1.2-3.3 1.2-2.3 0-16.4 6.8-23.5 11.4-16.1 10.2-40.6 33.8-59 56.6-1.9 2.3-4.7 5.7-6.2 7.4s-2.8 3.4-2.8 3.8-.6 1.3-1.3 2c-1.5 1.5-15.6 20.8-20.7 28.3-1.8 2.7-5.8 8.5-8.7 12.8s-5.3 8.1-5.3 8.4c0 .2-1 1.9-2.3 3.6-1.2 1.8-2.8 4.1-3.4 5.2-.7 1.1-4 6.4-7.3 11.8s-6 10-6 10.2-2.5 4.5-5.5 9.5-5.5 9.3-5.5 9.6c0 .2-1.1 2.1-2.3 4.2-1.3 2-4.6 7.7-7.2 12.7-2.7 4.9-6.8 12.6-9.2 17-4.6 8.6-30.1 59.8-35.1 70.5-8.8 19-10.6 22.9-12.4 27-1.1 2.5-3.1 7-4.5 10-2.6 5.9-4.8 10.7-6.8 15.5-2.1 5.1-3.3 7.7-6.4 14.8-1.7 3.8-3.1 7.2-3.1 7.7s-.6 2.1-1.4 3.7c-.8 1.5-2.2 4.6-3.1 6.8s-2 4.9-2.5 6c-.4 1.1-2.2 5.6-4 10-1.7 4.4-3.6 9.1-4.2 10.5-.5 1.4-1.6 3.8-2.3 5.5-.7 1.6-1.9 4.8-2.8 7-.8 2.2-2.7 7.1-4.2 11-1.5 3.8-3.4 8.8-4.2 11s-1.9 4.8-2.4 5.7c-.5 1-.9 2.3-.9 2.9s-.6 2.5-1.4 4.2c-1.3 3-2.7 6.8-6 15.4-.8 2.1-2.6 7.2-4.1 11.3s-3.1 8.6-3.6 10c-.6 1.3-1.9 5.1-3.1 8.5-1.1 3.3-2.2 6.7-2.5 7.5-2.2 5.7-6.5 17.8-6.9 19.5-.3 1.1-1 2.9-1.4 4-.5 1.1-2.4 6.7-4.3 12.5-2 5.8-4 11.6-4.5 13-.6 1.4-2.2 6.5-3.7 11.5-3.2 10.5-5.1 15.9-7.1 19.8-.8 1.6-1.4 4.2-1.4 5.8s-.4 2.9-1 2.9c-.5 0-1-1.5-1-3.4s.5-3.8 1-4.1c.6-.3 1-2.7 1-5.3.1-2.6.7-6.5 1.5-8.7s1.5-5.2 1.5-6.7.5-3.9 1.1-5.5c.6-1.5 1.5-5.5 2-8.8s1.6-9.2 2.4-13c3.2-14.2 4.6-21.1 5.4-26.7.5-3.1 1.1-6 1.4-6.5.4-.6 1.1-3.4 1.6-6.4.6-3 1.8-8.8 2.6-12.9.9-4.1 2-9.5 2.4-12s1.3-6.3 1.8-8.5c1.2-4.2 3.3-14 5.3-24 1.6-7.6 3.8-17.7 5.2-23.5.6-2.5 1.5-6.5 1.9-9 1.1-6.4 3.5-17.3 5.4-25.5.9-3.9 2.1-9.3 2.5-12.2.5-2.8 1.1-5.6 1.4-6.1s1.4-5.5 2.6-11.3c1.1-5.7 2.4-12 2.9-13.9s1.7-7.1 2.6-11.5 2.3-10.5 3-13.5 1.8-8 2.5-11c2.1-10.1 4.1-19.5 5.1-23.5.6-2.2 1.4-6 1.9-8.5s1.3-6.5 1.9-9 1.6-7 2.2-10 1.6-8 2.4-11c1.4-5.8 4-17.4 5-22.5.3-1.7 1.3-5.9 2.1-9.5s1.9-8.6 2.4-11.2c.5-2.7 1.2-5.3 1.5-5.9.4-.5 1.1-3.4 1.5-6.2.9-5.2 2.4-11.9 5.5-25.2.9-3.9 2.1-8.8 2.5-11s1.6-7.2 2.5-11c2.3-9.4 4.3-18.4 5-22 1.1-5.4 3.7-16.9 5-22 .7-2.8 1.8-7.5 2.4-10.5 2.6-11.9 4.3-19.7 5.6-24.5.8-2.8 1.8-7.3 2.4-10 1.4-7.1 3.9-18.1 5.5-24.5 3.1-12.2 3.9-15.7 4.7-19.5.4-2.2 1.5-6.9 2.4-10.5s2-8.3 2.4-10.5 1.3-6 2-8.5 1.7-6.3 2.3-8.5 1.5-6 1.9-8.5 1.5-8.3 2.3-13c3.9-21.5 4.3-50.3.7-60.5-4.7-13.8-11.1-20.1-23.6-23.4-4.9-1.3-11.4-1.2-18 .4M1130.8 100.5c-2.9 1.6-5.2 5.6-6.7 12-.5 2.2-1.7 6.7-2.6 10s-2 7.8-2.4 10c-.4 2.3-1 4.6-1.4 5.2-.4.7-1.1 3.1-1.6 5.5-1.5 7.3-7.6 31.4-9.3 36.8-.7 1.9-1.5 5.3-1.9 7.5-1.1 6-4.8 21.4-6.5 26.5-.8 2.5-1.4 5.5-1.4 6.7s-1 3.3-2.2 4.7l-2.3 2.6-59.5 1c-32.7.6-68.3 1.5-79 2s-28.5.9-39.4 1c-19.6 0-20 0-23.2 2.5-4.3 3.3-5.2 7.4-2.7 12.2 1.6 3.1 2.8 3.9 6.8 4.9 2.7.7 5.2 1.1 5.7.8.4-.3 23.2-.9 50.5-1.4 27.4-.5 63.8-1.4 80.8-2 17.1-.6 36.8-1 44-.8l13 .3-.3 3.9c-.2 2.2-.8 5.1-1.4 6.5-.5 1.4-1.3 4.6-1.8 7.1s-1.6 7.4-2.5 11c-.8 3.6-2 8.6-2.5 11.2-.5 2.7-1.2 5.2-1.5 5.8-.3.5-1 3.3-1.5 6.2-.6 2.9-1.7 8.2-2.5 11.8-2.6 10.8-4.6 19.3-5.5 24-.5 2.5-1.6 7.4-2.5 11-2.5 9.6-4.5 18.9-5.4 24-.9 5-2.8 12.8-4.2 17.7-.6 1.8-1.5 5.6-2 8.5-2.2 11.6-2.8 14.6-4.9 22.3-1.3 5-3.5 10-5.9 13.5-2.1 3-7.8 13.6-12.7 23.5-5 9.9-9.6 19.1-10.4 20.5-.7 1.4-1.7 3.2-2.1 4-8.6 16.3-12.5 23.4-15.6 28.2-1.2 2.1-2.3 4-2.3 4.2 0 .3-3.1 5.7-7 12.1-3.8 6.4-7 12-7 12.5 0 .4-.4 1-.9 1.2-.5.1-1.7 1.9-2.7 3.8-1.1 1.9-4.6 7.5-7.9 12.3-3.3 4.9-6.4 9.6-7 10.5-2.6 4.3-17.6 24.7-24.4 33.2-4.2 5.2-11.9 13.8-17.1 19-10.3 10.3-16.9 14.5-19.5 12.6-2-1.4-4.5-10.7-4.5-16.6 0-6.4 5.3-45.7 6.6-49 .3-.8.9-3.8 1.4-6.5.8-4.7 2.2-11.2 5.6-25 .8-3.3 1.9-7.6 2.3-9.5.5-1.9 1.9-7.1 3.1-11.5 2.2-8 3.3-11.8 4.5-16.5.4-1.4 2-7 3.7-12.5 1.6-5.5 3.6-12.5 4.5-15.5s1.9-6.4 2.4-7.5c.4-1.1 1.5-4.7 2.4-8s2.3-7.6 3-9.5c8-21.7 8.5-33.2 1.7-39.5-5.5-5.1-12.3-3-31.8 9.8-22.8 14.9-41.4 23.2-50.2 22.5-4.7-.4-4.5-1.5 1.4-12.1 8-14 22.4-41.8 22.4-43.1 0-.3 1.3-3.4 2.9-6.9 4-8.7 8.1-18.6 8.1-19.9 0-.5.6-2.4 1.4-4.1.7-1.8 2.1-7.4 3.1-12.6 1.8-9 1.8-9.6 0-14.7-1-3-3.2-6.7-5.2-8.6-3.2-3.1-3.8-3.3-10.7-3.3-8 0-11.4 1.3-20.1 7.7-5.4 3.9-17.1 15.6-25.2 25.3-8.4 10-17.5 28-22.8 45.5-2.5 8-2.5 29.2-.1 34.6 3.3 7.5 4.1 8.9 6.3 12.6l2.3 3.8-5.7 9c-3.2 5-6.2 9.9-6.8 10.8-.5 1-3.7 5.6-7 10.2-3.4 4.7-6.7 9.5-7.5 10.6-2.9 4.3-18.9 24.9-21.2 27.4-1.2 1.4-4.9 5.7-8 9.5-3.1 3.9-10.3 11.5-16 17.1-14.3 14-24.7 21.4-30.1 21.4-3.3 0-5.4-5.8-6.2-17-.9-12.6 2-46.8 4.6-54.8.6-1.8 1.1-8.7 1.2-15.3l.2-12.1-3.9-3.4c-4.3-3.7-7.6-4.3-12.3-1.9-3.9 2-6.7 5.2-19.6 22.9-16.8 23-28.4 36.4-35.9 41.2-4.6 2.9-6 3-8.3.4-3.3-3.6-4.5-9.1-4.5-20.5 0-11.7 1.6-21.5 5.1-30.5 1.1-3 2.4-6.6 2.9-8 .4-1.4 2.4-5.7 4.4-9.7 2-3.9 3.6-8.3 3.6-9.7 0-3.7-6.2-9.6-10.1-9.6-3.5 0-7.7 2.5-9 5.4-.5 1.2-1.3 2.8-1.8 3.6-1 1.6-5.1 10.6-7.1 15.5-6 14.9-8.4 30-7.7 48.5.5 10.9.9 13.4 3.4 19.2 4.6 10.6 9.7 15.5 18.7 17.7 5.3 1.3 13.5 0 16.7-2.6.8-.7 1.9-1.3 2.3-1.3 1.5 0 11.4-8.1 16.7-13.6 6.3-6.7 14.5-16.4 17.8-21.2 1.2-1.7 2.7-3.2 3.2-3.2 1.3 0 1.1 7.4-.7 23.3-1.5 12.9-1.5 14.8 0 24.5 2.5 15.7 4.1 19.9 10.2 25.8 3.8 3.7 6.2 5.3 9 5.7 5.1.9 14.3-.2 17.1-1.9 1.2-.8 2.7-1.4 3.4-1.4 1.5 0 16.6-10.1 20.4-13.6 1.7-1.5 5.7-5.3 9-8.3 11.4-10.7 28.5-30.7 43.6-51.1 10.9-14.7 13.9-18.9 13.9-19.5 0-.3 2.5-3.9 5.5-8 3-4 5.5-7.7 5.5-8.1s1-2.1 2.3-3.8 2.6-3.9 3-4.9c.7-2 4.7-2.3 6.5-.4.9.8 5 1.2 13.5 1.1 11.6 0 15-.6 25.2-4.3 4-1.4 22.1-10.6 25-12.7 1.7-1.1 3.7-2.4 4.5-2.8.8-.3 2.9-1.5 4.5-2.5 1.7-1.1 3.3-2 3.8-2 1.5-.2.6 4.4-2.8 13.9-.7 1.9-2.1 6.2-3 9.5s-2 7.1-2.5 8.5-1.6 5.2-2.5 8.5c-2.1 7.7-4.6 16.3-5.6 19.5-1 3.3-3.3 11.8-5.4 20-.9 3.6-2.3 8.5-3.1 11s-1.4 5.5-1.4 6.7-.4 3.2-.9 4.5-1.6 5.9-2.5 10.3-2.2 10-2.8 12.5c-1.1 4.4-1.5 7-3.7 22-.6 4.1-1.6 10.3-2.1 13.6-1.6 9.9-1.2 33.3.6 40.6 2 7.7 5.8 13.3 11.6 17.1 3 1.8 17.2 2.5 18.2.8.3-.5 1.8-1.2 3.2-1.5 6.7-1.7 24.2-16.7 36.8-31.4 7.5-8.8 8.8-10.4 17.6-22.2 12.6-16.9 35.7-53.2 45.6-71.5 1.4-2.8 3.4-6.1 4.4-7.5.9-1.4 2-3.2 2.4-4s1.5-3.1 2.6-5c1.6-3 1.9-3.2 2.6-1.6.4 1 .1 4.1-.6 7-.7 2.8-1.6 7.1-2 9.6-.5 2.5-1.3 6.3-1.8 8.5-.6 2.2-1.6 6.7-2.2 10-1.6 8.2-3.9 19.1-5.2 24.5-.6 2.5-1.4 6.5-1.9 9-.4 2.5-1.4 7.6-2.2 11.5-.8 3.8-1.8 8.6-2.2 10.5-.3 1.9-1.3 6.6-2.1 10.5-4.4 20.4-4.3 19.8-5.9 29.5-.3 1.9-1.2 6.4-2 10s-1.9 9-2.6 12c-.6 3-1.5 7.7-2 10.5-.8 5.2-2.6 14.3-5.4 28-.9 4.4-2 10.5-2.5 13.5-.4 3-1.1 6.2-1.4 7s-1 4.2-1.6 7.5c-.5 3.3-1.6 9.6-2.5 14-.8 4.4-1.9 10.7-2.4 14-.6 3.3-1.5 8.7-2.1 12-3.9 20.3-5.3 28.1-6.5 37.5-.4 2.5-.9 5.3-1.1 6.2-.5 1.6.4 1.8 9.9 1.8h10.5l.5-3.8c.3-2 1.3-8 2.2-13.2s2-12.2 2.5-15.5c1-7.2 2.7-16.4 4.2-22.5.5-2.5 1.4-7 1.9-10 2.3-14.9 3-18.7 3.9-21.4.6-1.6 1-4.4 1-6.2s.5-4.5 1-6c.6-1.4 1.5-5.4 2-8.8.6-3.3 1.7-9.7 2.6-14.1.8-4.4 1.9-10.3 2.3-13 .5-2.8 1.3-7 1.9-9.5 1-4.1 2.6-11.7 5.3-26 .6-3 1.7-8.4 2.4-12 1.3-6.1 2.1-10.1 6-29.5.9-4.4 1.9-8.9 2.1-10 .8-2.9 3.3-15.2 4.3-20.5.4-2.5 1.3-6.5 1.9-9 .9-4 2.2-10.1 5.4-25.5 1.1-5.4 3.3-15.6 5.3-25 .8-3.3 1.9-8.7 2.5-12 1.7-8.8 4-19.4 5.3-24 .5-2.2 1.4-6 1.8-8.5.8-5 2.9-14.1 5.4-24 .9-3.6 2-9 2.4-12 .3-3 1-6 1.3-6.6.4-.6 1.2-3.5 1.7-6.5.6-3 1.7-8.3 2.5-11.9s1.8-7.9 2.1-9.5c1.5-7.3 3.8-17.4 5.1-21.9.8-2.6 1.4-5.9 1.4-7.2s.4-3.3.9-4.6 1.6-5.9 2.5-10.3c1-4.4 2.3-10.3 3.1-13 .8-2.8 1.6-6.4 1.9-8 .4-2.8 1.7-8.2 5.2-23 .8-3.3 1.8-7.8 2.2-10 .5-2.3 1.1-4.5 1.5-5.1.3-.6 1.1-3.5 1.6-6.5.8-4.8 1.7-8.5 5-21.9 3.3-13.2 3.6-13.9 5.6-14.4 9.2-2.6 323.5-4.2 342-1.8 15.6 2.1 19.5 2.8 20.7 4 1.5 1.5 7.3 1.6 9.9.2 1-.6 2.8-2.9 3.9-5l2-4-2-4c-2.1-4.2-8.7-8-13.9-8-1.4 0-4.2-.5-6.1-1-1.9-.6-10.5-1.6-19-2.2-22.5-1.5-182.5-2.2-225.5-.9-44.3 1.3-107.1 1.8-108 .9-.7-.7.7-8 3.1-15.7.8-2.5 1.4-5.5 1.4-6.8s.4-3.1 1-4.1c.9-1.7 2.4-7.5 4-16.4.5-2.6 1.3-5.6 1.9-6.7s1.1-3.2 1.1-4.6.5-3.5 1-4.6c.6-1 1.5-4 2.1-6.6 2.5-11.9 3-13.9 3.8-16.7 3.7-12.5 9.1-33.3 9.1-35 0-.8-.8-2.8-1.7-4.5-2.9-5-8.3-6.4-13.5-3.6M882 335.1c0 1.9-2.1 9.3-4.1 14.4-.4 1.1-1.1 3.1-1.5 4.5s-1.8 4.2-3 6.2c-1.3 2.1-2.4 4.5-2.4 5.4 0 1.5-1.5 4.9-9.8 22.4-1 1.9-1.9 3.7-2.2 4s-1.5 2.5-2.8 5c-1.2 2.5-3.8 7.4-5.8 11s-4.5 8.2-5.6 10.2c-2.9 5.5-5.1 5-7.1-1.5-.9-3-1.7-7-1.7-9 0-3.9 2.3-14.7 4.5-21.2 4.4-13 20.3-36.5 31.9-47.1 7.4-6.8 9.6-7.7 9.6-4.3"/><path d="M1887.5 100.4c-2.9 1.3-14.5 13.1-14.5 14.8 0 .4-1.7 3.6-3.8 7-2.1 3.5-4.5 7.9-5.4 9.8-2.3 5.1-6.8 15.2-7.8 17.5-.9 1.9-5.7 14.1-8.5 21.5-2.2 5.7-6.2 17.1-8 23-1 3-2.2 6.4-2.6 7.5-1 2.5-3.1 9-5.4 17-.9 3.3-2.3 7.6-3 9.5-1.4 4-3.8 11.6-5.3 17.5-2.1 7.6-4.4 16-5.7 20.5-1.4 4.5-3.8 13.2-5.5 20-.5 1.9-1.6 5.8-2.4 8.7-.9 2.8-1.6 6.1-1.6 7.3s-.5 3-1.1 4.1-1.4 4.1-1.9 6.7-1.6 7.4-2.5 10.7-2 7.8-2.4 10-1.2 5.6-1.8 7.5c-1.3 4.1-3.2 11.8-4.4 17.5-.4 2.2-1.5 7.1-2.4 11-.9 3.8-2 9.3-2.5 12.2-.4 2.8-1.2 5.8-1.6 6.5-.5.7-1.1 3.3-1.5 5.8-1.2 7.3-2.8 12.8-4.7 16-1.9 3-3.2 3-3.2 0 0-2.9-4-10.9-7.3-14.7-9.3-10.6-24.4-13.2-39.4-6.7-1.7.8-3.6 1.4-4.2 1.4s-1.1.4-1.1 1c0 .5-.6 1-1.4 1-2.5 0-13.9 9-22.1 17.4-4.4 4.5-11.4 13.1-15.5 19-11.4 16.3-26.3 37-27.1 37.6-.5.3-2.5 2.9-4.6 5.7-4 5.3-14.2 18-16.5 20.4-.7.8-4.9 5.4-9.3 10.4-9.9 11.2-21.7 23-31.5 31.5-4.1 3.6-7.7 6.8-8 7.1s-3.9 3.1-8 6.1c-14.5 10.6-22.2 13.8-33.3 13.8-6.4 0-8.4-.4-11.5-2.4-6.5-4.2-9.9-8.8-13.5-18.1-4.3-11.2-4.3-39.5 0-56 2-7.9 1.4-6.5 13.6-32.5 1.3-2.6 4.3-5.8 20.6-21.5 14.1-13.6 35.1-38.2 35.1-41.1 0-.4.6-1.5 1.4-2.3 1.3-1.6 4.7-8.2 7.8-15.1 7.1-15.8 2.2-30.6-10.7-32.5-5.6-.9-12.7.9-17.2 4.1-1.7 1.3-3.6 2.4-4.1 2.4-.6 0-4.9 4.2-9.7 9.2-9 9.6-18.7 23.3-25 35.4-2 3.8-4 7.6-4.5 8.4-.8 1.4-4.2 9-7.1 15.5-2.1 5-3.9 9.7-5.9 16-1.1 3.3-2.4 6.9-2.9 8s-1.6 4.5-2.5 7.5-2.3 7.7-3.1 10.3-1.5 5.4-1.5 6.2c0 .9-.4 2.3-.9 3.3-.5.9-3.6 7.3-7 14.2s-7.1 14-8.2 15.9-3.6 6.4-5.6 10c-1.9 3.6-3.9 7.3-4.4 8.1s-4.8 8-9.6 16c-4.9 8-9.6 15.6-10.6 17-.9 1.4-5.9 8.8-11 16.5-21.6 32.5-40.4 55-53.6 64l-7.2 4.9-2.2-2.2c-2.1-2.2-2.2-2.9-2.1-22.1.1-11.6.6-21.2 1.3-23.2.6-1.9 1.5-6.6 2.1-10.4.5-3.9 1.6-10.4 2.5-14.5.8-4.1 2-9.6 2.5-12.2.5-2.7 1.1-5.2 1.5-5.7.3-.5 1-2.9 1.5-5.3s1.6-7.2 2.5-10.8 2-8.1 2.4-10 1.2-5.1 1.8-7c1.7-5.4 3.9-13 5.3-18 1.7-6.2 4-13.7 5.6-18.5.8-2.3 1.4-4.8 1.4-5.8 0-.9.4-2.5.9-3.5.5-.9 2.4-6.4 4.2-12.2 1.7-5.8 4.2-13.7 5.5-17.5 1.2-3.9 3-9.9 3.9-13.5 1.4-5.9 1.4-7 0-10.2-2-5-7.2-8.8-11.9-8.8-4.6 0-12.3 3.6-22.5 10.4-4.3 2.9-8.4 5.6-9.2 6s-2.3 1.2-3.4 1.9c-14 8.5-20.9 11.9-29.9 14.8-6.3 1.9-13.1 2.5-14 1.1-.3-.5.6-2.8 1.9-5.3 1.3-2.4 3.1-5.8 3.9-7.4.9-1.7 3.3-6.2 5.5-10 4.5-8.1 14.4-27.9 19-38 1.8-3.9 3.6-7.8 4.2-8.7.5-1 .9-2.6.9-3.6s.4-2.2.9-2.8c.9-.9 1.4-2.4 5.2-15.4 2.3-8 2.5-20.5.4-24.6-.8-1.6-2.8-4.3-4.5-5.9-2.9-2.8-3.7-3-10.3-3-5.6 0-8.3.5-12.1 2.4-17.7 8.7-41.1 37.2-51 61.9-10.4 26.1-10.1 44.3 1.2 61.4l2.4 3.8-3.3 5.2c-9.9 15.7-26.9 40.2-33.9 48.8-2 2.5-7.1 8.9-11.4 14.3-10.3 13-34.5 37.1-42.6 42.5-10.8 7.2-13.2 6.9-16.2-1.9-3.5-9.9-1.5-39.3 5.2-77.7 1.4-8.1-.3-14.5-4.8-18.2-2.3-1.9-4.8-3-6.7-3-6.7 0-11.8 5.3-29.2 30.5-1.6 2.2-3.9 5.1-5.1 6.5-1.3 1.4-3.5 4.2-4.8 6.3-1.4 2.1-6.9 8.2-12.2 13.6-10.9 11-14.2 12.7-17.7 8.9-2.5-2.6-5.5-13.5-5.5-20 0-7.4 4.4-28.2 7.1-33 .5-1 .9-2.4.9-3.2s1.8-4.9 4-9.1c3.1-5.9 4-8.7 4-12.5 0-4.4-.4-5.2-3.3-7.4-4.4-3.4-8.7-3.4-12 0-4.3 4.3-12.5 21.1-14.7 30.4-.5 1.9-1.6 6.4-2.5 10-1.1 4-1.9 12.4-2.2 21.8-.5 14.4-.3 15.7 2.1 23.3 4.3 13.2 9.8 19.2 19.9 21.7 12.3 3.1 28.4-7 45.9-28.8 3.4-4.1 4.7-5.7 11-13l2.1-2.5-.7 3.5c-1.5 7.5-2.7 32.1-2.1 43 .5 10.8 1.5 15.4 5.1 23.7 1.9 4.2 8.9 10.1 13.6 11.4 23.9 6.4 62.6-28.8 112.1-102.1 5.7-8.5 11-16.5 11.6-17.8 1.3-2.4 4.9-3 7-1 .8.9 4.9 1.3 13.4 1.2 11.5 0 15.4-.7 25.2-4.3 5-1.9 22.3-10.6 25.2-12.7 1.7-1.3 3.5-2.4 3.8-2.4s2.1-1.1 3.9-2.5 3.8-2.5 4.4-2.5c1.6 0 1.5 4.2-.2 8.2-.8 1.8-2.6 7.3-4.1 12.3-1.4 4.9-3.1 10.3-3.7 12-.5 1.6-1.4 4.6-1.8 6.5s-1.3 4.8-1.8 6.5c-.6 1.6-1.6 5-2.3 7.5-.6 2.5-1.7 6.5-2.4 9-.8 2.5-2 7-2.9 10-.8 3-2.2 7.9-3 10.9-.9 2.9-1.6 6.2-1.6 7.2 0 1.1-.4 2.7-.9 3.7-.5.9-1.6 5.3-2.6 9.7-.9 4.4-2.1 9.8-2.7 12s-1.4 6.2-1.9 9c-.5 2.7-1.6 8.8-2.4 13.5-.9 4.7-2 12.3-2.5 17s-1.4 11.2-2 14.5c-1.4 8.5-1.2 15.7.6 26 2.3 12.5 5.5 18.3 12.6 22.8 4.5 2.8 15.3 2.3 21.9-1.1 9.2-4.7 14.1-8.3 23.8-17.7 14-13.5 34.4-39.6 48.6-62.2.6-.9 3.4-5.2 6.3-9.5 2.8-4.4 5.2-8.1 5.2-8.4 0-.2 2.4-4.3 5.3-9.1s6.1-10.5 7.2-12.6c1.1-2 2.3-3.7 2.6-3.7.7 0 3.9 12.9 3.9 15.9.1 2.4 3.3 10.9 6.4 17.1 3.5 6.7 12.3 15.5 19.4 19.3 9.2 5 26.5 5.6 37.7 1.5 13.3-4.9 27.2-14.2 45.4-30.3 8.7-7.6 31.1-30.6 41.4-42.4 2-2.3 3.7-4.1 3.8-3.9 0 .2.2 7.7.3 16.8.2 16.9.7 19.9 5.5 30 2.1 4.6 8.7 11.1 13.4 13.3 14.1 6.4 32.8-4.2 52.5-29.8 5.9-7.7 27.2-39 31.1-45.8 1.3-2.3 3-4.8 3.8-5.5.7-.7 1.3-2 1.3-2.8s.4-1.4.9-1.4 1.3-1 1.7-2.2c.6-1.9.7-1.9 1.6-.5.5 1.1.5 3.2-.3 5.9-.6 2.4-1.5 6.8-2 9.8-.4 3-1.5 9.1-2.4 13.5-.8 4.4-2 10.9-2.5 14.5-.6 3.6-1.5 8.1-2 10-.6 1.9-1 5.2-1 7.2s-.4 4.8-1 6.2c-.5 1.4-1.4 5.8-2 9.8s-1.7 11.1-2.5 15.8c-.9 4.7-2 11.8-2.5 15.7-.5 4-1.4 9-1.9 11-.6 2.1-1.1 5.5-1.1 7.5s-.5 4.9-1 6.3c-.6 1.5-1.4 6.1-2 10.3-.5 4.2-1.7 12.2-2.6 17.7-.8 5.5-1.9 13.2-2.3 17.1-.4 3.8-1.1 7.5-1.4 8.2-.4.6-1.2 5.1-1.7 9.9s-1.3 11.7-1.9 15.3c-.5 3.6-1.4 10.3-2 15-.5 4.7-1.5 12.3-2.1 17-.7 4.7-1.6 13.2-2 19-.5 5.8-1.4 15.4-2 21.5-2.1 19.9.6 35 6.9 39.2 5.1 3.4 7.7 3.8 11.8 1.7 4.8-2.6 9.3-8.1 13.2-16 2.4-4.9 3.1-7.4 2.6-9.5-.8-3.5-6.2-7.9-9.8-7.9-1.4 0-2.9-.5-3.3-1.1-.9-1.6-.5-18 .7-26.4.6-3.9 1.5-11.3 2-16.5s1.6-14.5 2.4-20.5c.8-6.1 2-14.8 2.5-19.4.6-4.7 1.5-10.1 2-12 .5-2 1-5.6 1-8.1s.5-6.3 1.1-8.4c.6-2.2 1.5-7.2 2-11 .5-3.9 1.5-11.4 2.4-16.6.8-5.2 1.9-12.7 2.5-16.5.5-3.9 1.4-8.8 2-11 .5-2.2 1-5.7 1-7.8s.4-4.7 1-5.7c.5-1 1.4-5.3 2-9.7.5-4.3 1.7-11.9 2.6-16.8.8-5 1.9-11.8 2.3-15.1.5-3.4 1.1-6.6 1.5-7.2s1.1-3.9 1.6-7.4 1.6-10.4 2.5-15.3c.9-5 2-11.7 2.4-15 .5-3.3 1.4-7.3 2-8.8.6-1.6 1.1-4 1.1-5.5s.6-5.6 1.5-9.2c.8-3.6 1.9-9.2 2.5-12.5 1.4-7.6 3.9-20.1 8.6-42 1.2-5.6 4-12.4 9.5-23.5 7.3-14.6 18.9-38.9 18.9-39.6 0-.1 1.4-3.3 3.1-7.1 3.2-7.1 4.6-10.4 6-13.8.4-1.1 1.7-4 2.7-6.5 1.1-2.5 2.7-6.5 3.6-9 1.9-5.6 3.9-10.7 5.3-14 .7-1.4 2.3-5.9 3.8-10 1.4-4.1 3.2-8.9 3.9-10.5 1.8-4.1 5.7-15.3 6.5-19 .5-1.7 1.3-3.9 1.8-5 .6-1.1 3.7-10.1 6.8-20 6.5-20.3 8.4-26.1 9.5-29 1.1-2.8 3.2-9.2 7-21.5 1.8-5.8 3.6-11.3 4.1-12.2.5-1 .9-2.6.9-3.5 0-1 .6-3.8 1.4-6.3 2.4-7.6 4.4-15.2 5.5-21 .6-3 1.7-9.1 2.6-13.6 2.8-14.8 1.5-27.5-3.4-32.4-1.4-1.4-7.6-4-9.6-3.9-.5 0-2.4.6-4 1.3m-7.3 52.5c-.6 2-1.7 6.1-2.6 9.2s-1.6 6.3-1.6 7.1c0 .9-.7 2.9-1.5 4.4-.8 1.6-1.5 3.7-1.5 4.6s-.4 2.7-.9 4c-.4 1.3-1.6 5-2.6 8.3s-2.3 7.3-3 9c-.8 1.6-2.5 7-4 12-1.5 4.9-3.3 10.5-4.1 12.3s-1.4 3.9-1.4 4.6c0 .8-.7 2.7-1.5 4.2-.8 1.6-1.5 3.9-1.5 5.1s-.4 2.5-1 2.8c-.5.3-1 1.3-1 2.2 0 .8-.6 2.9-1.3 4.6-1.9 4.4-3.7 9.6-4.7 13.2-.4 1.6-2.2 6.8-4 11.5-1.7 4.7-3.4 9.4-3.7 10.5s-1.1 3.4-1.9 5.2c-.8 1.7-1.4 3.5-1.4 4.1 0 .5-.7 1.5-1.5 2.2s-1.5 2.6-1.5 4.2c0 1.7-.4 2.7-1 2.3-1.3-.8-1.3-4 0-6.3.5-.9 1.4-3.7 1.9-6.2s1.7-7 2.6-10 2.1-7.1 2.5-9c.5-1.9 1.6-5.8 2.4-8.5 3.7-12.4 4.8-16.2 5.5-19.5.4-1.9 1.3-4.5 1.9-5.7.7-1.2 1.2-3 1.2-4.1s.7-3.3 1.5-4.8c.8-1.6 1.5-3.7 1.5-4.7 0-.9.4-2.5.9-3.5.5-.9 1.6-4.4 2.6-7.7s2.3-7.4 3-9c.7-1.7 2.1-5.7 3.1-9s2.2-6.4 2.6-6.9c.4-.6.8-1.9.8-3.1s.7-3 1.5-4.1c.8-1 1.5-2.8 1.5-4 0-1.1.4-2.4.8-3 .5-.5 2-3.8 3.2-7.4 1.3-3.6 3-7.6 3.7-9s1.3-3.1 1.3-3.8c0-.6.5-1.2 1-1.2.6 0 1-.8 1-1.8s.3-2.2.8-2.6c1.2-1.3 1.5 3.5.4 7.3m-519 184.2c-.3 3.5-4.2 16.1-6.7 21.4-.8 1.6-2 4.6-2.7 6.5-2.9 7.6-27.4 55-29.7 57.3-1.5 1.5-3.9-2.9-5-9.3-1.6-9.6.8-21.6 7.2-35 3.7-8.1 12-21.2 16.6-26.5 6.3-7.2 18.5-18.5 19.5-18.2.6.2 1 1.9.8 3.8m221.2 28.6c-2 8.2-14 25.2-28.2 40-3.4 3.6-5.6 3.7-3.4.3.7-1.1 1.2-2.4 1.2-3 0-1.4 10.6-18.6 14.8-24 7.5-9.4 13.7-15.7 16-16 .1 0-.1 1.2-.4 2.7m172.2 42.5c3.5 3.9 4.4 7.6 4.4 17.2 0 8.6.2 9.4 2.5 11.6 1.4 1.3 2.5 2.9 2.5 3.6 0 1.5-17.9 31-23.2 38.1-2.1 2.9-3.8 5.5-3.8 5.8 0 .6-9.6 14.7-17.7 26-2.3 3.3-5.3 7.6-6.6 9.5-4.7 6.9-16.6 18.6-21.7 21.4-6.7 3.6-9.1 2.6-11.5-4.8-5.7-17-.5-49.2 11.8-74.6 3.7-7.5 13-23.1 17.2-28.7 5.3-7.1 20.3-20.8 26.2-24 4.6-2.6 7-3.2 11.9-3.2 5.1-.1 6.4.3 8 2.1M3079.9 100.5c-2.5 1.4-5.9 7.7-5.9 11 0 .9-.4 2.3-.9 3.3-.8 1.6-2 5.9-4.2 15.2-.4 1.9-1.5 6.2-2.4 9.5-2 7.5-4.3 16.7-5.5 22.3-.5 2.4-1.2 4.7-1.5 5.2s-1 2.8-1.5 5.2-1.7 7.2-2.5 10.8c-.9 3.6-2.1 8.5-2.6 10.9-.5 2.5-1.3 5.9-1.8 7.5-.9 2.8-1.5 5.3-5.2 19.8-.6 2.6-1.7 5.2-2.4 5.8s-24.4 1.4-61.6 2c-33.2.6-68.7 1.5-78.9 2s-27.6.9-38.8.9c-22.5.1-24.2.5-26.8 6.6-2.2 5.4.2 10.5 6.1 13 2.4 1 6.8 1.1 19.1.4 8.7-.4 27.4-.8 41.4-.9 14 0 34.3-.5 45-1s35.1-1.2 54.2-1.6c39.2-.8 37.3-1.2 34.8 6.9-.7 2.3-1.7 6-2.1 8.2s-1.5 6.9-2.4 10.5-2.1 8.9-2.6 11.9-1.3 5.9-1.6 6.5c-.4.6-1 3.1-1.4 5.6s-1.3 6.5-1.9 9c-.7 2.5-1.6 6.1-2 8s-1.4 5.7-2 8.5c-.7 2.7-1.5 6.3-1.7 8-.2 1.6-1 5.2-1.8 8-.8 2.7-2.1 8.6-3.1 13-.9 4.4-2 9-2.5 10.3s-.9 3.6-.9 5.3c0 1.6-.7 4.6-1.5 6.6-.8 1.9-1.5 4.9-1.5 6.5s-.4 3.7-1 4.7c-.5 1-1.4 4.3-1.9 7.2-.6 3-1.5 7.9-2 10.9-.6 3-1.5 6.6-2 8s-1.2 4.7-1.6 7.3c-.6 4.3-1.4 5.6-7.3 11.5-7.4 7.4-11.5 11.9-18.2 20.1-2.5 3-5.2 6.2-6 7.1-2.4 2.6-11.1 12.6-22 25.5-5.7 6.6-11.7 13.6-13.4 15.5s-5.4 6.2-8.1 9.5c-2.8 3.3-6.2 7.3-7.6 9-15 17.3-35 41.2-43.4 51.8-10.4 13.2-11 13.8-12.6 13.2-.8-.3-2.1-2.2-3.1-4.3-5.4-12.1-8.4-17.7-14.9-27.6-2.2-3.2-3.9-6.1-3.9-6.4s-1.1-2-2.5-3.8-2.5-3.5-2.5-3.8c0-.2-1.7-3.1-3.9-6.3-3.7-5.6-18.1-30.2-18.1-30.9 0-.2-1.7-3.9-3.8-8.2s-4.1-8.7-4.5-9.8c-.3-1-1.5-4.4-2.6-7.4-6.8-17.6-6.3-33.5 1.4-49.5 9.6-20 27.8-32.5 49.7-34.2 4.4-.4 7.4.1 13.4 2.2 6.4 2.2 8.1 2.5 10.4 1.5 5-2.1 7.2-5.3 6.8-10-.2-3.5-.9-4.8-3.9-7.2-4.1-3.3-8.3-4.6-18.4-5.8-10.1-1.1-29.1 1.2-31.8 3.9-.6.6-1.9 1.1-2.8 1.1-3.8 0-19.2 10.2-26.3 17.4-5.8 6-11.8 14.5-14.7 21.2-5.2 11.7-5.9 13.5-5.9 15.5 0 1.1-.4 2.5-1 3.2-.5.7-6.1 8.1-12.2 16.5-14.8 20.1-19.6 26.4-20.6 27.1-.4.3-2.3 2.6-4.2 5.1s-3.7 4.7-4 5-3.8 4.3-7.9 9c-10.5 12-22.5 24.6-29.6 31-20.3 18.3-29.8 25.6-38.5 29.6s-10.4 4.4-17.6 4.4c-5.4 0-8.5-.5-11.2-1.9-15.6-8.1-21.1-30.1-16.2-66.1 1-8.2 3.8-20.4 6.5-29.1.8-2.6 1.5-5.3 1.5-6.1 0-1.4 8-9.5 15-15.2 6.9-5.6 22.5-21.3 31.7-32.1 15.9-18.5 25-33.9 28.2-48.1 2.4-10.1-2.4-19.4-11.6-22.5-4.2-1.4-5.4-1.4-10.2-.2-3 .8-7.7 2.9-10.5 4.7-6 3.9-19.2 17.3-22.9 23.3-1.4 2.3-3.1 4.4-3.7 4.8s-1.6 1.7-2.1 2.8c-.5 1.2-1.8 3.5-2.9 5.2-6.1 9.6-14.4 26.6-20.5 42.5-1 2.5-2.1 5.4-2.6 6.5-1.7 4.3-7.6 23.6-10.9 36-4 14.9-7 36.5-7 50.2 0 23.6 5.8 40.9 17.5 52.8 10.8 10.9 22.5 14.6 38.7 12.4 4.9-.6 9.1-1.6 9.4-2 .3-.5 1.2-.9 2-.9 2.3 0 12.7-5.4 20.6-10.7 14.6-9.8 40.9-34.1 58.2-53.8 10.9-12.4 12.5-14.3 17.1-20 2.1-2.8 4.2-5.2 4.5-5.5.4-.3 2.6-3.2 5-6.5 5.1-7 10-12.5 11.2-12.5.4 0 .8.8.8 1.7 0 2.5 2.7 10.6 7 20.8 2 4.9 11.3 23.5 14 28 1.6 2.7 3.3 5.7 3.7 6.5.9 1.9 12 19.7 21.8 35 7.6 11.9 10.6 17.7 17.9 34.2 3.2 7.2 1.9 12.4-5.4 21.1-3 3.6-10 13.8-10 14.6 0 .5-.4 1.1-.8 1.3-1 .4-9.3 13-19.9 30.3-9.4 15.3-17.6 30.9-22.2 42-1.8 4.4-3.7 8.8-4.2 9.8-.6 1-1.4 3.7-1.9 6s-1.3 6-1.9 8.2c-1.8 6.8-1.4 18.1.8 22.3 2.9 5.6 6.1 8.6 10.9 10.5 5.3 2.1 9 2.1 14.4.1 14.2-5.2 24.7-13.1 36.1-27.2 5.8-7.2 15.1-21.6 16.2-25.4.4-1.3 1.1-2.5 1.5-2.8 1-.7 7-15.6 7-17.4 0-.9.4-2.4.9-3.4 1.3-2.4 3.6-11.1 5.5-21.2 2.1-10.9 2.1-35.1.1-43.5s-1.8-11.6.8-15.2c5.1-7.2 18.4-24.2 23.1-29.7 2.8-3.3 10.3-12.1 16.6-19.6s14.4-17 17.9-21.1c9.3-10.8 9.8-11.5 19-22.4 4.7-5.5 10.3-12.1 12.5-14.6 3.9-4.3 7.8-8.8 17.6-20.4 9.9-11.7 10-11.8 10.6-10.1.3.9.1 3-.6 4.8-.6 1.8-1.6 5.5-2 8.3-.5 2.7-1.6 8.1-2.5 12-.9 3.8-2 9.5-2.5 12.6s-1.4 6.8-2 8.3c-.5 1.5-1 4.1-1 5.7 0 1.7-.4 3.8-1 4.8-.5 1-1.4 4.5-1.9 7.7-.6 3.2-1.8 9.3-2.7 13.4s-2 9.5-2.4 12c-.5 2.5-1.3 6.3-1.9 8.5s-1.7 7.6-2.6 12-2 9.6-2.5 11.6c-.6 2-1 4.7-1 5.9 0 1.3-.6 4.6-1.4 7.4s-2 8-2.7 11.6c-2.4 13.3-2.9 15.7-4.4 23-.9 4.1-2 10.1-2.5 13.3-.6 3.3-1.3 6.3-1.6 6.9-.4.5-1 3.5-1.4 6.6-.5 3.2-1.6 9.3-2.5 13.7s-2 10.4-2.5 13.3-1.3 7.4-1.9 10c-.5 2.6-1.7 8.5-2.6 13.2s-2.2 11.4-3 15c-.7 3.6-1.8 9.6-2.5 13.5-.6 3.8-1.8 10.1-2.6 14-.8 3.8-1.4 8.2-1.4 9.7s-.4 3.8-1 5.2c-.5 1.4-1.4 5.8-2 9.8-1.7 12.8-3.8 25.2-4.5 27.1-.7 1.5.2 1.7 9.9 1.7 11.8 0 11 .6 11.9-8.5.3-2.2.9-6.7 1.6-10 .6-3.3 1.5-8.3 2-11 .6-2.8 1.7-9.5 2.6-15s2.1-12 2.7-14.5 1.5-7 1.9-10c1.7-11.7 2.9-18.6 3.9-21.4.6-1.6 1-4.4 1-6.2s.5-4.5 1.1-6.1c.6-1.5 1.5-5.3 1.9-8.3.5-3 1.5-9.1 2.4-13.5s2.1-10.8 2.6-14.3c.6-3.5 1.5-7.2 2-8.2.6-1 1-3.4 1-5.4 0-1.9.5-4.7 1-6.2.6-1.5 1.5-5.2 2-8.3s1.6-9 2.5-13.1c.8-4.1 2-10.1 2.5-13.3.6-3.3 1.3-6.3 1.6-6.9.3-.5.9-3.3 1.4-6.1.8-5 2.7-14.3 5.6-27.7.8-3.6 1.9-8.8 2.4-11.7.4-2.8 1.1-5.6 1.4-6.1.3-.6 1-3.6 1.6-6.9.5-3.2 1.6-9 2.5-12.8.8-3.9 2-9.7 2.6-12.9.5-3.3 1.2-6.3 1.5-6.8s1-3.3 1.5-6.1c.9-5.7 2.6-14.2 3.9-19.7 1.6-6.6 3.3-14.5 4.1-19 .4-2.5 1.2-6.3 1.8-8.5s1.7-7.6 2.6-12 2-9.6 2.5-11.5c1.5-6.2 3.1-13.4 4-18 .4-2.5 1.3-6.3 1.8-8.5.6-2.2 1.6-6.7 2.2-10 .7-3.3 1.8-8.3 2.5-11 .7-2.8 2-8.6 3-13 .9-4.4 2.1-9.6 2.6-11.5s1.4-5.5 1.9-8 1.6-7.7 2.5-11.5c.9-3.9 2.1-9.1 2.5-11.7.5-2.7 1.2-5.2 1.5-5.8s1-3.1 1.5-5.8c.5-2.6 1.6-7.6 2.5-11.2s2-8.3 2.4-10.5c1.1-5.2 2.9-12.7 4.7-18.9.8-2.6 1.4-5.8 1.4-6.9s.4-3.4.9-5.1 1.7-6 2.6-9.6 2.4-9 3.3-12l1.7-5.5 9.5-.6c5.2-.4 54.3-1.2 109-1.9 100-1.3 211.5-.8 226 1 15.2 1.9 17.5 2.3 19.5 3.6 2.8 2 8.6 1.7 11.4-.6 3.1-2.6 4.1-9.9 1.8-13.4-2-2.9-9.3-6.6-13.3-6.6-1.6 0-4.5-.5-6.4-1.1s-10.5-1.5-19-2.1c-23.7-1.6-173.8-2.2-226-.9-76 1.9-106.8 2-107.4.4-.3-.7.1-3.4.8-6 1.8-6.1 3.6-13.7 4.7-18.8.4-2.2 1.5-6.7 2.4-10s2-7.6 2.5-9.5c1.2-5.6 3.1-13.1 4.5-18.5.8-2.8 1.8-6.8 2.4-9 2.7-11.1 6-23.8 8.2-31 3.7-12.5 3-19.4-2.1-22-3.6-1.9-6.7-1.8-10.1 0m-402.5 265.2c-.9 3.7-8.5 16.2-14.8 24.3-6.3 8.3-16.7 19.1-17.7 18.5-.7-.5 3.2-8.6 7.7-15.7 1.3-2.1 2.4-4 2.4-4.3 0-1.3 10.9-15.3 15.8-20.3 5.7-5.9 7.6-6.6 6.6-2.5M2853 640.2c0 12.7-5.9 42.7-9.1 46.2-.5.6-.9 1.6-.9 2.4 0 2.4-8.8 19.1-13.5 25.8-9.7 13.6-23.1 25.9-29.1 26.6-4.7.5-4.6-3.3.3-18.2 2.4-7.2 7.5-19.2 10-23.2 1.3-2.1 2.3-4.4 2.3-5.2s.4-1.7.9-2.1c.6-.3 1.6-1.8 2.4-3.3 2.2-4.3 5.7-10.4 7.7-13.7 1.1-1.7 2.6-4.4 3.5-6.2s2.3-3.7 3.1-4.4c.8-.6 1.4-1.5 1.4-1.9 0-1.1 14.2-22.4 15.2-22.8.4-.2.8-1 .8-1.7 0-1.3 2.6-3.4 4.3-3.5.4 0 .7 2.4.7 5.2"/></svg>