<svg fill="#3e6a7e" xmlns="http://www.w3.org/2000/svg" width="1418.667" height="1418.667" viewBox="0 0 1064 1064"><path d="M501.3 223.6c-62.4 6.8-118 29.8-160.1 66.2-8.6 7.4-11.6 13.8-7.5 16 2.8 1.6 6.9-.4 20.6-10.1 17.1-12.1 29-19.4 44.6-27.2 45.9-23 95.9-33.4 146.9-30.5 57 3.3 101.5 18.1 151 50.2 7.5 4.9 14.6 9.1 15.8 9.4 4.2 1.1 5.9.1 6.2-3.5.3-3.1-.3-4-5.9-9.3-12.1-11.3-36.9-26.6-60.4-37.2-46.2-20.9-100.7-29.6-151.2-24M724 305c-2.6 2.6-2.5 6 .4 14.3 3.6 10.2 10.9 20.9 21.9 32.3 11.6 12.1 21.4 19.8 31.4 24.9 7.1 3.6 7.2 3.7 11.8 12.6 2.5 4.9 4.3 8.9 4 8.9-.2 0-4.7-3.1-9.7-6.9-13.5-9.9-18.9-12.5-26.6-12.5-5.5-.1-6.6.2-8.3 2.3-3.9 4.8-1.1 16.5 5.7 23.7 7.3 7.7 23.7 17.4 40.4 23.8 4.1 1.6 8.9 3.5 10.6 4.2 2.8 1.1 3.5 2.2 6.3 10.6 1.7 5.1 3.1 9.7 3.1 10.1s-3.5-2.2-7.7-5.8c-8.4-7.2-19.9-13.5-24.5-13.5-14.6 0-8.5 21.5 12.6 43.9 5.2 5.5 18.6 16.4 24.2 19.6 3.8 2.2 4.4 4.6 4.4 19.5v10.4l-3.7-5.9C810.1 505 799.4 494 793.5 494c-.9 0-2.7 1.1-4 2.5-5.3 5.2-2.7 19 7.5 40 3.2 6.6 9.7 17.8 14.5 25 9.6 14.4 9.4 13.6 6 27.5-1.2 4.7-1.5 5.2-2.1 3.1-.4-1.3-2.8-6.7-5.4-12-8.1-16.5-17.4-26.1-25.2-26.1-8 0-11.1 4.4-11.1 15.6 0 6.2.5 8.2 3.6 14.9 2.1 4.2 9 15.3 15.5 24.6 6.4 9.3 12.1 17.6 12.6 18.3 1 1.4-2.6 10.6-10.4 26.7-3.6 7.4-4.5 8.5-9.7 11.7-16.1 9.6-35.4 27.5-59.6 55-18.4 21-26.3 28.3-41.4 38.4-13.4 8.9-20.8 12.5-34.2 16.4-9.7 2.9-11.6 3.2-13.2 2-1.7-1.2-1.1-1.5 6.3-3.5 9.8-2.6 19.8-7.7 37.7-19.5 11.1-7.2 13.1-8.9 13.1-11.1 0-1.7-.5-2.5-1.8-2.5-1 0-10.4 4.9-21 11-20.1 11.5-20.5 11.7-42.2 17.6-22.7 6.1-21.7 6-24 3.9-2.4-2.1-2.6-3.5-.5-3.5 4.5 0 36.5-10.8 47.3-16 11.9-5.7 27.4-15.1 32-19.3 2.4-2.2 3-5.6 1-5.8-2.9-.3-5 .7-20.4 9.2-8.9 4.9-20.8 10.7-26.5 12.9-15.1 5.6-41.5 13.4-43.1 12.6-6.5-3.3-6.8-3 6.4-8.4 6.8-2.7 17-6.7 22.8-8.7 15.1-5.3 28.4-12.6 43.1-23.7 7.7-5.7 9-7.2 8.2-9.6-.9-2.5-5.4-1-14.4 4.9-13.9 9.2-26 15.3-38.9 19.7-6.3 2.2-15.7 5.7-20.8 7.7-9 3.6-9.3 3.7-11.3 1.9-1.1-1-4.1-2.1-6.7-2.4l-4.7-.6 7-4.6c3.9-2.5 16.3-9.1 27.7-14.6 23.3-11.3 32.8-17.4 43.9-28.2 8.3-8.1 19.5-22.7 20.5-26.6.7-2.7-1-5.4-3.4-5.4-.8 0-8.7 4.3-17.5 9.6-23.4 14.1-34.4 19-27.8 12.3 3.7-3.6 4.8-7.1 3.3-10.4-1-2.3-.3-3 13.6-13.8 29-22.4 32.8-24.2 63.7-29.2 18-2.9 23.9-4.6 32.7-9.2 15.2-8 23.3-19.6 9.8-14.3-4.8 1.9-5.2 1.9-4.5.3 6.6-15.6 12.9-38.3 16.1-57.8 2.5-14.8 2.5-45.4.1-61.6-6-40.6-20.1-74.3-45.2-107.7-16.6-22.2-45.5-47-51.9-44.6-3.7 1.4-1.4 5 11.5 18.4 23.8 24.7 39.1 45.7 50.7 69.3 14.7 30.1 21.7 57 22.9 88.7 1.2 34.5-3.7 62.1-16.8 94.4l-4.3 10.5-7 1.6c-3.9.8-11.8 2.2-17.6 3-29.6 4.3-39 8.5-62.5 27.9-6.6 5.4-18.6 14.3-26.7 19.7s-15.2 10.8-15.8 11.8c-3.7 7 3.8 15.2 15.4 16.7 6 .9 17.6-1.9 26-6.1 6.6-3.3 6.8-3.3 4.5-.9-4.9 5.2-22.2 15.7-38.6 23.3-20.8 9.7-30.9 15.7-38.4 23.2-6.4 6.2-8.4 9.9-9.4 17.5-.6 4.1-.3 5.3 1.5 7.6 1.2 1.6 2.9 2.8 3.8 2.8 1.4 0 1.7.7 1.4 3.8-.6 6.3 2.9 8.5 10.4 6.3 2.9-.8 3.2-.7 4.8 2.5 2.8 5.9 8 6.7 23.5 3.4 5.2-1.1 9.6-2 9.8-2 .1 0 .3.9.3 2 0 3.3 3.5 6 7.8 6 3.6 0 28.9-6.2 38.7-9.5 6.7-2.3 14.2-6.2 24.6-12.8 13.2-8.3 21.5-15.4 34.5-29.4 25.1-26.9 61.6-62.4 57.9-56.3-2.9 4.9-11.2 16.7-17.2 24.5C706.1 779 621.5 821 532 821c-63.9 0-127-21.5-177.8-60.5-13.2-10.1-41.4-37.7-51.6-50.5-6.9-8.7-23-32.2-24.2-35.5-.7-1.7-.6-1.7 2.2.1 13.5 8.5 28 22.1 69.9 65.6 14.4 14.9 18.7 18.7 28 24.8 17.4 11.3 26.6 15.4 46.5 20.5 23.3 6 28 5.9 28-.6 0-2.9.2-3.1 2.8-2.6 1.5.2 7.1 1.3 12.4 2.2 12.4 2.3 17 1.4 19-4 .9-2.6 1.6-3.4 2.8-2.9.8.3 3.3.8 5.6 1.1 5.5.7 7.8-1.6 7.1-6.9-.4-2.9-.2-3.8.9-3.8.8 0 2.6-1.2 4.1-2.6 2.2-2.2 2.4-3.1 1.9-6.7-1.4-8.5-3-12.1-8.1-17.2-8.5-8.6-18.4-14.7-44.6-26.9-13.9-6.4-28.4-15.4-33.2-20.4l-2.7-2.8 6.8 3.2c7.8 3.9 17 6.4 22.7 6.4 4.9 0 15.6-4.9 17.9-8.1 1.8-2.7 2.1-6.2.6-9-.6-1-7-5.8-14.3-10.6-7.3-4.7-18.8-13.2-25.7-18.8-27.1-22-33.8-25-65.5-30.1-8.8-1.4-18.6-3.2-21.8-4.1-7.1-1.9-7.4-2.5-15.1-25.4-6.9-20.5-10.3-37.1-11.4-56.4-3-50 9.7-96.7 37.6-138.4 11.1-16.8 16.8-23.6 36-43.3 16.7-17.1 18.5-20 13.1-20.6-5.9-.7-30.3 18.4-44.5 34.9-37.8 43.8-56.6 93.4-56.6 148.9 0 17.6 1 28.1 4.3 45 2.3 11.5 7.7 30 11.3 39l2.4 5.8-3.3-.5c-1.8-.3-3.5 0-3.9.5-1.8 3 13.4 14.6 23.9 18.2 3.3 1.2 13.9 3.4 23.5 5.1 29.4 5.1 36.9 8 55 21.9 5.8 4.4 13.5 10.3 17.2 13.1l6.7 5.1-.6 4.7c-.5 4.5-.3 5 3.1 8.4 2 2.1 3.2 3.7 2.6 3.7-2.9 0-14.7-5.8-26.9-13.3-17.2-10.7-19.8-11.9-22.1-11.2-4.3 1.4-1.6 7.7 8.4 20.2 12.1 14.9 26.3 26.2 43.6 34.5 4.7 2.2 13.9 6.7 20.5 9.8 6.6 3.2 14.9 7.7 18.5 10.1l6.5 4.4-4.5.3c-2.8.2-5.3 1.1-6.6 2.3l-2.2 2-17.8-6.6c-9.9-3.6-20.4-7.5-23.4-8.7-6.4-2.4-20.4-10.3-30.5-17.1-7.3-4.9-10.9-5.8-11.9-3.1-.8 2.1 4.3 7.1 14.4 14 12 8.2 23.3 13.8 42.1 20.8 9.6 3.6 20.3 7.8 23.8 9.3l6.2 2.8-3.5 1.9c-3.5 1.9-3.6 1.9-11.3-.3-27.6-8-41.3-13.3-59-23C387 728 386.8 727.9 385 729c-4.5 2.8 5.1 10.5 28.1 22.4 13.3 6.9 22.7 10.5 40.9 15.6 6.3 1.8 11.9 3.5 12.3 4 .4.4-.4 1.5-1.9 2.5-2.6 1.7-3 1.7-13.3-1.3-5.8-1.7-14.4-4.1-19.1-5.2-11.3-2.8-14.9-4.2-25.5-10.5-15.8-9.2-27.5-15.5-28.9-15.5-2.2 0-2.8 1.7-1.6 4 1.1 2 17.9 13.5 30.7 20.8 3.9 2.3 10.9 5.4 15.5 6.8 13.1 4.1 12.6 3.9 10.3 5.1-1.6.9-4.5.4-13.2-2.1-13.4-3.9-19.1-6.7-31.6-15-16.1-10.8-23.2-17.2-41.2-37.6-29.9-33.8-49.6-51.4-67.3-59.8-9.2-4.4-9.3-4.4-12.5-10.8-2.8-5.8-3-6.7-1.7-8.7 6-9.4 19.3-33.3 24.3-43.4 5.3-10.8 6.1-13.1 6.5-19.7.4-6.2.1-8.2-1.7-11.9-4.3-8.8-11.3-8.7-20.1.2-8.5 8.6-16 25-19 41.3-1.4 7.5-1.9 9.2-2.5 8.6-.2-.2-2-5.9-4-12.6l-3.5-12.3 5.6-9.2c7.9-13 18.7-35.5 22.5-46.7 2.4-7.2 3.3-11.8 3.7-19.2.4-9.3.4-9.7-2.1-12.2-3.7-3.7-7-3.3-12.2 1.5-7.1 6.6-19.4 27.1-22.6 37.8-1.2 4.1-1.4 4.3-2 2-.4-1.3-.7-9.4-.8-17.9l-.1-15.5 7-5.3c24.9-19 45.9-54.9 37.5-64.2-5-5.6-16.8-.1-30.7 14.2-4.3 4.4-7.8 7.6-7.8 7.1 0-1.3 5.6-21.3 6.1-21.7.2-.2 5.5-2.9 11.7-6.1 14.9-7.5 28.2-16.3 34.9-23 14.5-14.5 13.6-33.6-1.5-31-5.4.9-12.4 5.1-21.9 13.4-4.6 3.9-8.3 6.9-8.3 6.7 0-.3 2.5-5.1 5.5-10.8 3.8-7.3 6.3-10.9 8.5-12.2 9.5-5.6 26-21.9 34-33.6 7.3-10.8 13-25.1 13-33 0-7.5-6.2-9-16.9-4-22.6 10.7-41.5 38.3-42.6 62-.2 6.1-.9 8.5-3.3 12.8l-2.9 5.3-.6-14.3c-.8-20.2-4.9-32.8-11.9-36.4-13.4-6.9-18.9 25-10.4 60.1 1.4 5.5 3.6 12.7 5 16l2.6 6-4.9 13.5c-2.7 7.4-5.2 12.8-5.5 12s-1.5-4.4-2.7-8c-5.7-17-14.2-27-22.9-27-6.5 0-9.6 4-10.6 13.7-1.4 13.3 6.7 31.1 26 57.4l2.7 3.5-1.5 12c-.9 6.5-1.7 14.1-1.8 16.9l-.3 5-3.3-8c-6.7-16.1-18.2-31.4-26.5-35.4-5.6-2.7-8.2-2.6-11.2.4-2.1 2-2.5 3.4-2.5 8.3 0 25.6 13.2 53.4 38.3 80.8 8.3 9 8.4 9.2 9 15.5.4 3.5 1.8 11.1 3.2 16.8s2.4 10.5 2.3 10.7c-.2.1-3.2-2-6.8-4.7-12.3-9.3-27.8-15.9-37.4-15.9-5 0-8.6 3.6-8.6 8.5 0 15.1 29 38.8 56.9 46.4 4.1 1.2 7.8 2.4 8.2 2.8.3.5 2.5 5.1 4.8 10.4 16.1 37 45.3 76.4 78.1 105.3 76.9 67.8 179.6 93.6 277.8 69.5 49.8-12.2 90.5-33.7 131.2-69.5 36.5-32.1 67.2-74.7 83.3-115.8l4.3-11 9.5-3.1c17.3-5.8 31.4-14.6 44-27.5 14.2-14.4 18.3-25.7 11.8-32.2-2.7-2.8-3.4-3-7.5-2.4-12 1.6-30.7 13.7-44.7 28.9-2.2 2.3-3.6 3.4-3.3 2.5 1.1-3.5 4.5-22.5 5.1-28.8.8-7.3 1.6-8.8 9.3-17.9 12.7-15 27-40.7 31.2-56.4 2.4-8.8 3.7-22.5 3-30.8-.7-7.3-2.8-9.9-8.4-9.9-3.8 0-4.6.6-11.2 7.4-5.5 5.7-8.2 9.6-12.2 17.7-2.8 5.7-6.1 13.9-7.4 18.1-1.3 4.3-2.6 7.8-2.9 7.8s-.9-3-1.2-6.8c-.3-3.7-1.3-11.5-2.3-17.3l-1.7-10.6 6.5-11.4c8.8-15.4 11.6-21.1 14.5-29.4 6.4-18.4 2.5-36.5-7.9-36.5-9 0-17.4 11.4-22.1 30.2-2 7.8-2.5 8.8-3.1 6.5-.3-1.5-2.9-7.9-5.6-14.3-4.8-11.1-4.9-11.5-3.5-15.4.7-2.1 2.4-9.6 3.6-16.7 2.4-14.4 2.2-27.9-.7-42-2.7-13.5-7.4-19.1-14.1-16.7-6.7 2.3-9.8 13.1-9.7 33.1l.1 13.3-2.7-4.8c-1.5-2.6-3.7-8.2-4.9-12.5-6.5-23.8-26-45.9-47-53.3-8.1-2.9-11.5-3-14.1-.4m18 13.8c7.2 4.5 18.2 15.2 23 22.3 4.3 6.2 9.3 17.3 8.8 19.6-.4 2-11-6.9-22.3-18.8-7.8-8.3-15.5-19.4-18.1-26.2-.8-2.3 1.3-1.5 8.6 3.1m-431.3 10.4c-2.4 5.1-6.1 11.5-8.2 14.3-5.2 6.9-15.7 18.6-16.1 18.2-.2-.2 1.9-4.1 4.6-8.7 3.2-5.3 4.7-8.7 4.1-9.3-1.6-1.6-3.7-.1-7.8 5.1-2.1 2.7-4.8 6.2-6.1 7.8-1.4 1.8-.7-.3 2-5.5 3.1-6.2 6.4-10.7 12.7-17.4 8.6-9 18.3-16.6 18.9-14.7.2.5-1.6 5.1-4.1 10.2m496.6 41c.1 9.4-.2 15.1-.9 15.8-2.2 2.2-4.4-27.8-2.7-37.5l.7-4 1.4 5.5c.8 3.3 1.4 11.4 1.5 20.2m-560.4-6.4c.7 3.7 1 13.2.9 21.2-.3 14.2-.3 14.4-1.6 9.1-2-8.6-3.2-23-2.5-30.8.3-4 .9-7 1.4-6.8.4.3 1.2 3.5 1.8 7.3M767 392.5c4.8 2.5 21.6 14.9 29 21.5l4.5 4-8.5-3.6c-9.9-4.1-19.8-9.4-24.8-13.2-3.6-2.7-9.2-9.7-9.2-11.4 0-1.2 3.2-.2 9 2.7M294.8 398c-1.4 4.2-9.7 13.1-16.1 17.3-7.6 5-21.7 12.7-21.7 11.8 0-1 17.9-18.3 24-23.3 4.4-3.5 12.8-8.8 14.2-8.8.4 0 .2 1.4-.4 3M848 416.1c0 3.4-.9 8.6-2.1 12.2-2.1 6.4-10.7 23.8-13.4 27.2-1.5 1.9-1.5 1.9-1.1-.5.3-1.4 1-5.9 1.6-10 1.5-10.3 3.8-19.5 6.7-26 2.6-5.9 6.1-10.3 7.4-9.4.5.3.9 3.2.9 6.5m-635.5 10c5.2 6.3 9.6 17.3 13.5 34.2 1.1 4.8 2 9.1 2 9.4 0 .9-5.6-7.1-10.1-14.4-6.2-10.1-9.9-20.1-9.9-26.7 0-3.1.4-5.6.9-5.6s2.1 1.4 3.6 3.1m581.1 24.5c13.5 9.2 30.4 29.8 27.1 33.1-.9.9-11.8-8-18.2-14.9-3.3-3.5-7.7-8.9-9.8-12-6.2-9.5-6-10.9.9-6.2m-524.9 11.8c-4.9 10.7-18.6 27.8-27 33.8l-3 2.2.7-3.4c.8-4.2 7.9-15.6 14.4-23.3 5.1-6 16.2-16 17-15.2.2.2-.7 2.8-2.1 5.9m599.8 30.1c-2.9 11.6-10.6 28-19 40.5-3.1 4.7-5.5 7.8-5.2 6.9.3-.8 2.1-7.6 4-15 5.8-22 12.6-38.6 19.4-47.6l2.8-3.7.3 4.5c.1 2.4-.9 8.9-2.3 14.4m-671 5.9c6.3 9 12.7 22.3 18.9 39.9 3.1 8.7 5.6 16 5.6 16.3 0 1.2-8.2-9.3-13.5-17.1-2.9-4.4-7.1-11.7-9.4-16.3-4-8-9.1-24.2-9.1-29.1 0-2 .2-2.2 1.6-1 .9.7 3.5 4 5.9 7.3m609.3 20.9c8.2 12 16.3 29.8 16.2 35.9-.1 2.3-.1 2.3-1.6.3-6.2-8-18.9-33.2-21.9-43.5-.7-2.2-.6-2.3.8-1.2.8.7 3.7 4.5 6.5 8.5M264 527.8c-1.1 3.9-3.4 10.6-5.1 14.9-4 10.1-14.2 29.9-14.7 28.4-.6-1.9 4.5-20.2 8.1-28.7 3.3-7.8 12.4-23.1 13.2-22.2.3.2-.4 3.6-1.5 7.6m526.2 39.9c4.7 5 8.2 10.8 12.4 20.5 3.2 7.5 7.7 22.8 7 23.6-.5.4-15.2-20.6-19.9-28.4-5-8.3-7.2-19.4-3.9-19.4.4 0 2.4 1.7 4.4 3.7M285 577.5c0 2.5-.9 6.8-2 9.6-2.5 6.7-19.4 37.1-19.8 35.9-.6-1.7 2.7-16.4 5.4-24.7 4.6-13.6 11.5-25.3 15-25.3 1 0 1.4 1.3 1.4 4.5m591.9 10.7c-3.9 5.5-13.1 14.8-19.4 19.5-6 4.5-20.4 12.3-22.7 12.3-1.6 0 11.2-13.1 21.1-21.6 6.5-5.6 19.5-13.4 22.3-13.4.5 0-.1 1.5-1.3 3.2m-675.3 17.7c3.9 1.5 11.1 5.5 16 8.9 9.2 6.3 21.4 16.7 21.4 18.2 0 2.8-22.3-8-31.8-15.4-7.4-5.8-16-14.6-14.2-14.6.8.1 4.7 1.3 8.6 2.9m255.7 80.3c3 2.6 3.1 2.7.9 2.8-5.2.1-16.2-7.6-14.6-10.2.6-1 9.2 3.6 13.7 7.4m168.7-6.4c0 2.3-2.2 4.3-7.8 7.1-4.4 2.2-7.7 2.5-7.4.6.2-1 13-9.3 14.5-9.4.4-.1.7.7.7 1.7m-130.6 73.3c3.8 1.7 6.4 4.4 5.4 5.5-.7.6-14.2-5.2-14.6-6.4-.6-1.9 4.3-1.5 9.2.9m88.4-.9c-.4 1.2-13.7 7.2-14.4 6.5-1.1-1.1 1.2-4 4.5-5.7 4.1-2.2 10.5-2.7 9.9-.8M493 767.4c1.4.6 2.6 1.8 2.8 2.7.2 1.4-.9 1.2-7.2-1-5.4-1.8-7.1-2.8-5.8-3.3 2-.8 6.6-.1 10.2 1.6m94.4-1.5c.7 1-12.2 5.6-13.1 4.7-.3-.3 0-1.2.7-2.1 2.2-2.6 11.3-4.5 12.4-2.6M479.6 776c4.8 1.8 1.5 3.2-4.6 1.9-3.6-.8-4.8-1.4-3.9-2 1.9-1.2 5.2-1.1 8.5.1m119.3-.1c1.2.8 1 1.1-1 1.5-4.7 1.1-9.2 1.1-9.6-.1-.7-1.9 8.1-3 10.6-1.4m-154.4 5.6 3 1.5-3.5-.6c-1.9-.4-4.4-1-5.5-1.5-1.8-.7-1.8-.8.5-.8 1.4 0 3.9.6 5.5 1.4m185 0c-3.5 1.6-7.4 2-5.9.6.9-.9 4.3-1.8 7.4-1.9.8 0 .2.6-1.5 1.3"/><path d="M526.3 625c-6.6 4-8.6 10.3-5.5 17.4 2.7 6 6.9 8.6 14.1 8.6 4.9 0 5.7-.3 9.1-3.8 4.9-4.8 5.9-9.5 3.5-15.8-1.1-2.9-2.9-5.3-4.9-6.5-4.2-2.5-12.1-2.5-16.3.1"/></svg>